<svg width="28" height="27" viewBox="0 0 28 27" fill="none" xmlns="http://www.w3.org/2000/svg">
<g clip-path="url(#clip0_35325_67243)">
<path d="M14.0002 27C21.4561 27 27.5002 20.9558 27.5002 13.5C27.5002 6.04416 21.4561 0 14.0002 0C6.5444 0 0.500244 6.04416 0.500244 13.5C0.500244 20.9558 6.5444 27 14.0002 27Z" fill="#FF0420"/>
<path d="M10.0637 17.0854C9.25913 17.0854 8.60033 16.8964 8.08733 16.5184C7.57973 16.135 7.32593 15.5842 7.32593 14.8768C7.32593 14.7256 7.34213 14.5474 7.37453 14.3314C7.46093 13.8454 7.58513 13.2622 7.74713 12.5764C8.20613 10.7188 9.39413 9.79004 11.3057 9.79004C11.8241 9.79004 12.2939 9.87644 12.7043 10.0546C13.1147 10.222 13.4387 10.4812 13.6763 10.8268C13.9139 11.167 14.0327 11.572 14.0327 12.0418C14.0327 12.1822 14.0165 12.3604 13.9841 12.5764C13.8815 13.1758 13.7627 13.7644 13.6169 14.3314C13.3793 15.2548 12.9743 15.9514 12.3911 16.4104C11.8133 16.864 11.0357 17.0854 10.0637 17.0854ZM10.2095 15.6274C10.5875 15.6274 10.9061 15.514 11.1707 15.2926C11.4407 15.0712 11.6351 14.731 11.7485 14.2666C11.9051 13.6294 12.0239 13.0786 12.1049 12.6034C12.1319 12.463 12.1481 12.3172 12.1481 12.166C12.1481 11.5504 11.8295 11.2426 11.1869 11.2426C10.8089 11.2426 10.4849 11.356 10.2149 11.5774C9.95033 11.7988 9.76133 12.139 9.64793 12.6034C9.52373 13.057 9.40493 13.6078 9.28073 14.2666C9.25373 14.4016 9.23753 14.542 9.23753 14.6932C9.23213 15.3196 9.56153 15.6274 10.2095 15.6274Z" fill="white"/>
<path d="M14.5025 16.9882C14.4269 16.9882 14.3729 16.9666 14.3297 16.918C14.2973 16.864 14.2865 16.8046 14.2973 16.7344L15.6959 10.1464C15.7067 10.0708 15.7445 10.0114 15.8093 9.96278C15.8687 9.91418 15.9335 9.89258 16.0037 9.89258H18.6983C19.4489 9.89258 20.0483 10.0492 20.5019 10.357C20.9609 10.6702 21.1931 11.1184 21.1931 11.707C21.1931 11.8744 21.1715 12.0526 21.1337 12.2362C20.9663 13.0138 20.6261 13.5862 20.1077 13.9588C19.6001 14.3314 18.9035 14.515 18.0179 14.515H16.6517L16.1873 16.7344C16.1711 16.81 16.1387 16.8694 16.0739 16.918C16.0145 16.9666 15.9497 16.9882 15.8795 16.9882H14.5025ZM18.0881 13.1164C18.3743 13.1164 18.6173 13.0408 18.8279 12.8842C19.0439 12.7276 19.1843 12.5062 19.2545 12.2146C19.2761 12.1012 19.2869 11.9986 19.2869 11.9122C19.2869 11.7178 19.2275 11.5666 19.1141 11.464C19.0007 11.356 18.8009 11.302 18.5255 11.302H17.3105L16.9271 13.1164H18.0881V13.1164Z" fill="white"/>
</g>
<defs>
<clipPath id="clip0_35325_67243">
<rect width="27" height="27" fill="white" transform="translate(0.500244)"/>
</clipPath>
</defs>
</svg>
