<svg width="27" height="27" viewBox="0 0 27 27" fill="none" xmlns="http://www.w3.org/2000/svg">
<path d="M13.5005 27C20.9563 27 27.0005 20.9558 27.0005 13.5C27.0005 6.04416 20.9563 0 13.5005 0C6.04464 0 0.000488281 6.04416 0.000488281 13.5C0.000488281 20.9558 6.04464 27 13.5005 27Z" fill="#13B5EC"/>
<path fill-rule="evenodd" clip-rule="evenodd" d="M14.5569 10.7708L17.7265 8.92189V12.6197L14.5569 10.7708ZM17.7265 18.6947L13.5004 21.1599L9.27429 18.6947V14.3806L13.5004 16.8458L17.7265 14.3806V18.6947ZM9.27429 8.92189L12.4439 10.7708L9.27429 12.6197V8.92189ZM14.0286 11.6512L17.1982 13.5002L14.0286 15.3491V11.6512ZM12.9721 15.3491L9.80256 13.5002L12.9721 11.6512V15.3491ZM17.1982 8.04145L13.5004 10.1545L9.80256 8.04145L13.5004 5.84037L17.1982 8.04145ZM8.21777 7.68928V19.223L13.5004 22.2165L18.783 19.223V7.68928L13.5004 4.6958L8.21777 7.68928Z" fill="white"/>
</svg>
