<svg width="27" height="27" viewBox="0 0 27 27" fill="none" xmlns="http://www.w3.org/2000/svg">
<rect x="0.000366211" width="27" height="27" rx="13.5" fill="#8247E5"/>
<path d="M18.1145 10.7789C17.8221 10.6128 17.4461 10.6128 17.1119 10.7789L14.7725 12.1499L13.185 13.0223L10.8874 14.3932C10.5949 14.5593 10.219 14.5593 9.88475 14.3932L8.08841 13.3131C7.79598 13.1469 7.5871 12.8145 7.5871 12.4407V10.3635C7.5871 10.0312 7.7542 9.69881 8.08841 9.4911L9.88475 8.45252C10.1772 8.28635 10.5532 8.28635 10.8874 8.45252L12.6837 9.53264C12.9761 9.69881 13.185 10.0312 13.185 10.405V11.776L14.7725 10.862V9.44956C14.7725 9.11721 14.6054 8.78487 14.2712 8.57715L10.9291 6.62463C10.6367 6.45846 10.2607 6.45846 9.92653 6.62463L6.50094 8.61869C6.16674 8.78487 5.99963 9.11721 5.99963 9.44956V13.3546C5.99963 13.6869 6.16674 14.0193 6.50094 14.227L9.88475 16.1795C10.1772 16.3457 10.5532 16.3457 10.8874 16.1795L13.185 14.8501L14.7725 13.9362L17.0701 12.6068C17.3626 12.4407 17.7385 12.4407 18.0727 12.6068L19.8691 13.6454C20.1615 13.8116 20.3704 14.1439 20.3704 14.5178V16.595C20.3704 16.9273 20.2033 17.2596 19.8691 17.4674L18.1145 18.5059C17.8221 18.6721 17.4461 18.6721 17.1119 18.5059L15.3156 17.4674C15.0231 17.3012 14.8143 16.9688 14.8143 16.595V15.2656L13.2268 16.1795V17.5504C13.2268 17.8828 13.3939 18.2151 13.7281 18.4228L17.1119 20.3754C17.4043 20.5415 17.7803 20.5415 18.1145 20.3754L21.4983 18.4228C21.7908 18.2567 21.9996 17.9243 21.9996 17.5504V13.6039C21.9996 13.2715 21.8325 12.9392 21.4983 12.7315L18.1145 10.7789Z" fill="white"/>
</svg>
