<svg width="27" height="28" viewBox="0 0 27 28" fill="none" xmlns="http://www.w3.org/2000/svg">
<circle cx="13.5" cy="14" r="13.5" fill="#2D374B"/>
<path d="M15.978 13.1634L17.4228 10.6712L21.3171 16.8374L21.3189 18.0207L21.3062 9.87774C21.297 9.67869 21.193 9.49658 21.0271 9.38921L14.016 5.28932C13.852 5.2074 13.644 5.20827 13.4804 5.29187C13.4583 5.30317 13.4374 5.31539 13.4176 5.32874L13.3932 5.34438L6.58775 9.35358L6.56132 9.36575C6.52737 9.38164 6.49306 9.40181 6.46083 9.42527C6.33182 9.51936 6.2461 9.65845 6.21839 9.81449C6.21424 9.83814 6.21118 9.86222 6.20972 9.88649L6.2204 16.5222L9.84772 10.8067C10.3044 10.0488 11.2994 9.80468 12.2231 9.81797L13.3072 9.84708L6.91964 20.2611L7.6726 20.7018L14.1367 9.85763L16.9939 9.84708L10.5464 20.9649L13.2332 22.5359L13.5542 22.7236C13.69 22.7797 13.8501 22.7825 13.987 22.7323L21.0967 18.5437L19.7374 19.3445L15.978 13.1634ZM16.5293 21.2345L13.8155 16.9046L15.4721 14.0469L19.036 19.7577L16.5293 21.2345Z" fill="#2D374B"/>
<path d="M13.8154 16.905L16.5292 21.2349L19.036 19.7581L15.472 14.0474L13.8154 16.905Z" fill="#28A0F0"/>
<path d="M21.3189 18.0204L21.3171 16.8371L17.4228 10.6709L15.978 13.1631L19.7374 19.3442L21.0967 18.5434C21.23 18.4334 21.3107 18.2718 21.3192 18.0975L21.3189 18.0204Z" fill="#28A0F0"/>
<path d="M5.00006 19.1371L6.91956 20.2615L13.3071 9.84749L12.223 9.81838C11.2993 9.8051 10.3044 10.0492 9.84764 10.8071L6.22032 16.5226L5 18.4288V19.1371H5.00006Z" fill="white"/>
<path d="M16.9938 9.84766L14.1367 9.85821L7.67261 20.7024L9.93198 22.0249L10.5464 20.9655L16.9938 9.84766Z" fill="white"/>
<path d="M22.5231 9.83251C22.4992 9.22506 22.1757 8.66894 21.6689 8.3452L14.5659 4.19262C14.0646 3.93598 13.4383 3.93567 12.9362 4.19244C12.8769 4.22285 6.02868 8.26054 6.02868 8.26054C5.93392 8.30672 5.84265 8.36178 5.75675 8.42421C5.30435 8.75385 5.02857 9.26603 5.00024 9.82879V18.4288L6.22056 16.5227L6.20988 9.88694C6.21134 9.86267 6.21434 9.83884 6.21855 9.81525C6.24608 9.65909 6.33186 9.51982 6.46099 9.42572C6.49322 9.40226 13.4584 5.30362 13.4805 5.29232C13.6443 5.20872 13.8523 5.20785 14.0162 5.28978L21.0273 9.38966C21.1932 9.49704 21.2971 9.67914 21.3064 9.87819V18.0983C21.2979 18.2726 21.2301 18.4341 21.0968 18.5442L19.7375 19.3449L19.0362 19.7581L16.5294 21.235L13.9871 22.7328C13.8502 22.7831 13.6901 22.7803 13.5543 22.7241L10.5465 20.9654L9.93208 22.0247L12.6351 23.6069C12.7245 23.6585 12.8042 23.7043 12.8695 23.7417C12.9707 23.7994 13.0397 23.8379 13.064 23.8499C13.2561 23.9448 13.5325 24 13.7816 24C14.01 24 14.2327 23.9574 14.4434 23.8734L21.8274 19.5261C22.2513 19.1923 22.5006 18.6889 22.5231 18.1435V9.83251V9.83251Z" fill="#96BEDC"/>
</svg>
