<svg width="27" height="27" viewBox="0 0 27 27" fill="none" xmlns="http://www.w3.org/2000/svg">
<rect x="0.000366211" width="27" height="27" rx="13.5" fill="#E84142"/>
<path d="M17.2346 14.5905C17.6014 13.9263 18.1932 13.9263 18.5599 14.5905L20.8438 18.794C21.2106 19.4582 20.9105 20 20.177 20H15.5759C14.8507 20 14.5506 19.4582 14.909 18.794L17.2346 14.5905ZM12.8169 6.49813C13.1836 5.83396 13.7671 5.83396 14.1339 6.49813L14.6423 7.45943L15.8426 9.67041C16.1343 10.2996 16.1343 11.0424 15.8426 11.6717L11.8166 18.9863C11.4499 19.5805 10.8414 19.9563 10.1662 20H6.82373C6.09021 20 5.79014 19.4669 6.1569 18.794L12.8169 6.49813Z" fill="white"/>
</svg>
