<svg width="16" height="16" viewBox="0 0 16 16" fill="none" xmlns="http://www.w3.org/2000/svg">
<rect width="16" height="16" rx="8" fill="#F3BA2F"/>
<path fill-rule="evenodd" clip-rule="evenodd" d="M11.2093 7.67325L11.2028 6.27645H11.2078L10.0214 5.57804L7.9884 6.77675L5.96767 5.57804L4.78197 6.27645V7.67325L6.815 8.86617V11.2578L7.99563 11.9497L9.17627 11.2578V8.86617L11.2093 7.67325ZM7.98913 2L4.78125 3.89132L5.96188 4.58973L7.98913 3.39102L10.0222 4.58973L11.2028 3.89132L7.98913 2ZM3.92933 10.5552L3.92282 8.16937L2.74291 7.47169V11.2601L5.95657 13.1449V11.7481L3.92933 10.5552ZM3.92282 7.17382V5.78352L5.10923 5.08512L3.92282 4.38672L2.74219 5.08512V6.47542L3.92282 7.17382ZM7.98382 4.38672L6.80318 5.08512L7.98382 5.78352L9.17023 5.08512L7.98382 4.38672ZM5.96188 9.36229L4.78125 8.66389V10.0607L5.96188 10.7526V9.36229ZM7.98913 12.9468L6.80849 12.2484V13.6387L7.98913 14.3371L9.17554 13.6387V12.2484L7.98913 12.9468ZM12.0494 4.38672L10.8688 5.08512L12.0494 5.78352V7.17382L13.2358 6.47542V5.08512L12.0494 4.38672ZM13.2365 7.47096L12.0559 8.16937L12.0494 10.5552L10.0229 11.7474V13.1442L13.2365 11.2594V7.47096ZM11.1963 10.0589L10.0156 10.7508V9.36051L11.1963 8.66211V10.0589Z" fill="white"/>
</svg>
