<svg width="40" height="40" viewBox="0 0 40 40" fill="none" xmlns="http://www.w3.org/2000/svg">
<rect width="40" height="40" rx="20" fill="#201D1D"/>
<path fill-rule="evenodd" clip-rule="evenodd" d="M24.03 9.48799C24.03 11.6862 22.2341 13.4682 20.0189 13.4682C17.8036 13.4682 16.0078 11.6862 16.0078 9.48799C16.0078 7.2898 17.8036 5.50781 20.0189 5.50781C22.2341 5.50781 24.03 7.2898 24.03 9.48799ZM25.6872 23.2483C26.7917 21.3447 29.2478 20.6958 31.1662 21.7918C33.0845 22.8878 33.7385 25.3249 32.634 27.2717C31.5295 29.1753 29.0734 29.8242 27.1551 28.7283C27.1261 28.6995 27.0971 28.6851 27.0682 28.6707L27.0679 28.6706C25.5564 27.7621 23.9578 28.6706 24.0014 30.4299V30.5164C24.0014 32.7084 22.1993 34.4966 19.9903 34.4966C17.7813 34.4966 15.9792 32.7084 15.9792 30.5164V30.4155C16.0228 28.6561 14.4387 27.7476 12.9273 28.6561C12.9129 28.6633 12.902 28.6705 12.8911 28.6777C12.8802 28.6849 12.8693 28.6922 12.8546 28.6994C10.9363 29.7954 8.48021 29.1465 7.37571 27.2429C6.2712 25.3393 6.92519 22.9022 8.84354 21.7774C10.7619 20.6814 13.218 21.3303 14.3225 23.2339C14.7003 23.8972 14.8747 24.6183 14.8602 25.3249C14.8166 27.0698 16.4007 27.9784 17.9121 27.0843C17.9411 27.0699 17.9701 27.0519 17.9991 27.0339C18.0282 27.0158 18.0574 26.9978 18.0865 26.9833C19.6124 26.1469 19.6124 24.3443 18.0865 23.4935C16.8222 22.8157 15.9792 21.5034 15.9792 19.9892V19.9027C16.0228 18.1433 14.4387 17.2348 12.9273 18.1433C11.7211 18.8643 10.1515 18.9365 8.84354 18.1866C6.92519 17.0906 6.25667 14.6534 7.36118 12.7499C8.46568 10.8463 10.9218 10.183 12.8401 11.2789C14.1481 12.0288 14.8747 13.3988 14.8457 14.8121C14.8021 16.557 16.3862 17.4655 17.8975 16.5714C18.5079 16.2109 19.22 15.9946 19.9903 15.9946C20.7605 15.9946 21.4727 16.2109 22.083 16.5858C23.5799 17.4944 25.1786 16.5858 25.135 14.8265C25.1059 13.4277 25.8326 12.0433 27.1405 11.2934C29.0589 10.1974 31.515 10.8463 32.6195 12.7499C33.724 14.6534 33.07 17.0906 31.1516 18.1866C29.8437 18.9365 28.2741 18.8788 27.0679 18.1433C25.5564 17.2348 23.9578 18.1433 24.0014 19.9027V19.9892C24.0014 21.5034 23.144 22.8157 21.8941 23.4935C20.3682 24.3299 20.3682 26.1325 21.8941 26.9833C21.9389 27.0011 21.9782 27.0243 22.0153 27.0463C22.0384 27.06 22.0607 27.0732 22.083 27.0843C23.5945 27.9928 25.1931 27.0843 25.1495 25.3249C25.135 24.6183 25.3094 23.8972 25.6872 23.2483Z" fill="#FF9100"/>
</svg>
